# Blender v2.77 (sub 0) OBJ File: 'AmmoCrate.blend'
# www.blender.org
o Cube
v 1.000000 -0.588000 -0.588000
v 0.588000 -1.000000 -0.588000
v 0.588000 -0.588000 -1.000000
v 1.000000 -0.588000 0.588000
v 0.588000 -0.588000 1.000000
v 0.588000 -1.000000 0.588000
v -0.588000 -0.588000 1.000000
v -1.000000 -0.588000 0.588000
v -0.588000 -1.000000 0.588000
v -0.588000 -0.588000 -1.000000
v -0.588000 -1.000000 -0.588000
v -1.000000 -0.588000 -0.588000
v 0.588000 0.588000 -1.000000
v 0.588000 1.000000 -0.588000
v 1.000000 0.588000 -0.588000
v 0.588000 0.588000 1.000000
v 1.000000 0.588000 0.588000
v 0.588000 1.000000 0.588000
v -1.000000 0.588000 0.588000
v -0.588000 0.588000 1.000000
v -0.588000 1.000000 0.588000
v -1.000000 0.588000 -0.588000
v -0.588000 1.000000 -0.588000
v -0.588000 0.588000 -1.000000
v 0.588000 0.588000 -0.628373
v 0.588000 -0.588000 -0.628373
v -0.588000 -0.588000 -0.628373
v -0.588000 0.588000 -0.628373
v 0.588000 -0.588000 0.628373
v 0.588000 0.588000 0.628373
v -0.588000 0.588000 0.628373
v -0.588000 -0.588000 0.628373
v -0.628373 -0.588000 0.588000
v -0.628373 0.588000 0.588000
v -0.628373 0.588000 -0.588000
v -0.628373 -0.588000 -0.588000
v 0.588000 0.628373 -0.588000
v -0.588000 0.628373 -0.588000
v -0.588000 0.628373 0.588000
v 0.588000 0.628373 0.588000
v 0.628373 -0.588000 -0.588000
v 0.628373 0.588000 -0.588000
v 0.628373 0.588000 0.588000
v 0.628373 -0.588000 0.588000
v 0.588000 -0.628373 -0.588000
v 0.588000 -0.628373 0.588000
v -0.588000 -0.628373 0.588000
v -0.588000 -0.628373 -0.588000
vt 0.000000 0.000000
vt 1.000000 0.000000
vt 1.000000 1.000000
vt 0.000000 0.000000
vt 1.000000 0.000000
vt 1.000000 1.000000
vt 0.000000 0.000000
vt 1.000000 0.000000
vt 1.000000 1.000000
vt 0.000000 0.000000
vt 1.000000 0.000000
vt 1.000000 1.000000
vt 0.000000 0.000000
vt 1.000000 0.000000
vt 1.000000 1.000000
vt 0.000000 0.000000
vt 1.000000 0.000000
vt 1.000000 1.000000
vt 0.000000 0.000000
vt 1.000000 0.000000
vt 1.000000 1.000000
vt 0.000000 0.000000
vt 1.000000 0.000000
vt 1.000000 1.000000
vt 0.000000 1.000000
vt 0.000000 1.000000
vt 0.000000 0.000000
vt 1.000000 0.000000
vt 0.000000 1.000000
vt 0.000000 0.000000
vt 0.000000 0.000000
vt 0.000000 1.000000
vt 0.000000 1.000000
vt 1.000000 0.000000
vt 0.000000 1.000000
vt 0.000000 0.000000
vt 0.000000 1.000000
vt 1.000000 0.000000
vt 0.000000 1.000000
vt 0.000000 0.000000
vt 0.000000 0.000000
vt 1.000000 1.000000
vt 0.000000 1.000000
vt 1.000000 0.000000
vt 0.000000 1.000000
vt 0.000000 0.000000
vt 1.000000 1.000000
vt 0.000000 1.000000
vt 0.000000 1.000000
vt 0.000000 0.000000
vt 1.000000 0.000000
vt 0.000000 1.000000
vt 1.000000 0.000000
vt 0.000000 0.000000
vt 1.000000 1.000000
vt 1.000000 0.000000
vt 0.000000 1.000000
vt 1.000000 0.000000
vt 1.000000 0.000000
vt 0.000000 0.000000
vt 1.000000 1.000000
vt 0.000000 1.000000
vt 1.000000 0.000000
vt 0.000000 1.000000
vt 1.000000 1.000000
vt 1.000000 0.000000
vt 1.000000 0.000000
vt 0.000000 1.000000
vt 1.000000 1.000000
vt 0.000000 1.000000
vt 1.000000 0.000000
vt 0.000000 0.000000
vt 1.000000 0.000000
vt 0.000000 1.000000
vt 1.000000 0.000000
vt 0.000000 1.000000
vt 1.000000 0.000000
vt 0.000000 1.000000
vt 1.000000 0.000000
vt 0.000000 0.000000
vt 1.000000 0.000000
vt 0.000000 0.000000
vt 1.000000 0.000000
vt 0.000000 1.000000
vt 1.000000 1.000000
vt 0.000000 1.000000
vt 1.000000 0.000000
vt 0.000000 0.000000
vt 1.000000 0.000000
vt 0.000000 0.000000
vt 1.000000 0.000000
vt 0.000000 0.000000
vt 1.000000 0.000000
vt 0.000000 1.000000
vt 0.000000 1.000000
vt 0.000000 0.000000
vt 0.000000 1.000000
vt 0.000000 0.000000
vt 0.000000 1.000000
vt 0.000000 0.000000
vt 0.000000 0.000000
vt 1.000000 1.000000
vt 0.000000 1.000000
vt 0.000000 1.000000
vt 0.000000 0.000000
vt 1.000000 1.000000
vt 0.000000 1.000000
vt 1.000000 0.000000
vt 0.000000 1.000000
vt 0.000000 0.000000
vt 0.000000 1.000000
vt 0.000000 0.000000
vt 1.000000 0.000000
vt 0.000000 1.000000
vt 0.000000 0.000000
vt 0.000000 0.000000
vt 1.000000 1.000000
vt 0.000000 1.000000
vt 0.000000 0.000000
vt 0.000000 1.000000
vt 1.000000 0.000000
vt 0.000000 1.000000
vt 0.000000 0.000000
vt 1.000000 1.000000
vt 1.000000 1.000000
vt 1.000000 1.000000
vt 0.000000 0.000000
vt 1.000000 1.000000
vt 0.000000 0.000000
vt 1.000000 1.000000
vt 1.000000 0.000000
vt 1.000000 1.000000
vt 1.000000 0.000000
vt 1.000000 1.000000
vt 1.000000 1.000000
vt 1.000000 1.000000
vt 1.000000 0.000000
vt 1.000000 1.000000
vt 1.000000 0.000000
vt 1.000000 1.000000
vt 1.000000 1.000000
vt 1.000000 0.000000
vt 1.000000 1.000000
vt 1.000000 0.000000
vt 1.000000 1.000000
vt 1.000000 1.000000
vt 1.000000 1.000000
vt 1.000000 1.000000
vt 1.000000 1.000000
vt 1.000000 1.000000
vt 1.000000 1.000000
vt 1.000000 1.000000
vt 1.000000 1.000000
vn 0.577400 -0.577400 -0.577400
vn 0.577400 -0.577400 0.577400
vn -0.577400 -0.577400 0.577400
vn -0.577300 -0.577400 -0.577400
vn 0.577400 0.577400 -0.577400
vn 0.577400 0.577400 0.577400
vn -0.577400 0.577400 0.577400
vn -0.577400 0.577400 -0.577400
vn 0.707100 -0.707100 0.000000
vn 0.000000 -0.707100 -0.707100
vn 0.707100 -0.000000 -0.707100
vn -0.000000 -0.707100 0.707100
vn 0.707100 -0.000000 0.707100
vn -0.707100 -0.707100 0.000000
vn -0.707100 -0.000000 0.707100
vn -0.707100 0.000000 -0.707100
vn 0.707100 0.707100 0.000000
vn 0.000000 0.707100 -0.707100
vn -0.000000 0.707100 0.707100
vn -0.707100 0.707100 -0.000000
vn -1.000000 0.000000 -0.000000
vn 0.000000 1.000000 0.000000
vn 1.000000 0.000000 0.000000
vn -0.000000 -1.000000 0.000000
vn 0.000000 -0.000000 -1.000000
vn 0.000000 -0.000000 1.000000
vn -0.577400 0.577300 0.577400
vn -0.577400 0.577300 -0.577300
vn 0.577400 0.577300 -0.577300
vn 0.577300 0.577400 0.577400
vn 0.577400 -0.577400 -0.577300
vn -0.577400 -0.577400 0.577300
vn 0.577300 -0.577400 0.577400
s off
f 1/1/1 2/2/1 3/3/1
f 4/4/2 5/5/2 6/6/2
f 7/7/3 8/8/3 9/9/3
f 10/10/4 11/11/4 12/12/4
f 13/13/5 14/14/5 15/15/5
f 16/16/6 17/17/6 18/18/6
f 19/19/7 20/20/7 21/21/7
f 22/22/8 23/23/8 24/24/8
f 1/1/9 6/6/9 2/25/9
f 11/11/10 3/26/10 2/27/10
f 13/28/11 1/29/11 3/30/11
f 5/31/12 9/9/12 6/32/12
f 17/17/13 5/33/13 4/4/13
f 12/34/14 9/35/14 8/36/14
f 20/20/15 8/37/15 7/7/15
f 22/38/16 10/39/16 12/40/16
f 14/41/17 17/42/17 15/43/17
f 24/44/18 14/45/18 13/13/18
f 18/46/19 20/47/19 16/48/19
f 23/23/20 19/49/20 21/50/20
f 26/51/21 13/52/21 3/30/21
f 27/53/22 3/26/22 10/10/22
f 24/54/23 27/55/23 10/39/23
f 25/56/24 24/57/24 13/13/24
f 30/58/21 5/33/21 16/16/21
f 31/59/24 16/48/24 20/60/24
f 7/7/23 31/61/23 20/62/23
f 29/63/22 7/64/22 5/31/22
f 19/19/25 33/65/25 8/37/25
f 35/66/24 19/49/24 22/22/24
f 36/67/26 22/68/26 12/40/26
f 8/36/22 36/69/22 12/70/22
f 38/71/26 14/45/26 23/72/26
f 39/73/23 23/74/23 21/50/23
f 40/75/25 21/76/25 18/46/25
f 37/77/21 18/78/21 14/41/21
f 42/79/26 1/29/26 15/80/26
f 43/81/24 15/43/24 17/82/24
f 44/83/25 17/84/25 4/4/25
f 1/1/22 44/85/22 4/86/22
f 46/87/21 2/25/21 6/88/21
f 47/89/25 6/32/25 9/90/25
f 48/91/23 9/35/23 11/92/23
f 45/93/26 11/94/26 2/27/26
f 40/75/14 42/95/14 43/96/14
f 25/56/12 38/97/12 28/98/12
f 36/67/13 28/99/13 35/100/13
f 34/101/9 38/102/9 39/103/9
f 40/75/10 31/104/10 39/105/10
f 43/96/16 29/106/16 30/107/16
f 34/108/11 32/109/11 33/110/11
f 29/63/18 47/111/18 32/112/18
f 33/113/17 48/114/17 36/115/17
f 27/116/19 45/117/19 26/118/19
f 44/119/20 45/117/20 46/120/20
f 41/121/15 25/122/15 26/123/15
f 26/123/27 45/93/27 41/124/27
f 44/119/28 46/87/28 29/106/28
f 32/112/29 47/89/29 33/65/29
f 36/115/30 48/91/30 27/55/30
f 39/105/31 31/59/31 34/125/31
f 43/96/4 30/58/4 40/126/4
f 42/127/32 37/77/32 25/128/32
f 38/129/33 35/66/33 28/130/33
f 1/1/9 4/131/9 6/6/9
f 11/11/10 10/132/10 3/26/10
f 13/28/11 15/15/11 1/29/11
f 5/31/12 7/133/12 9/9/12
f 17/17/13 16/134/13 5/33/13
f 12/34/14 11/135/14 9/35/14
f 20/20/15 19/136/15 8/37/15
f 22/38/16 24/24/16 10/39/16
f 14/41/17 18/137/17 17/42/17
f 24/44/18 23/138/18 14/45/18
f 18/46/19 21/139/19 20/47/19
f 23/23/20 22/140/20 19/49/20
f 26/51/21 25/128/21 13/52/21
f 27/53/22 26/141/22 3/26/22
f 24/54/23 28/142/23 27/55/23
f 25/56/24 28/130/24 24/57/24
f 30/58/21 29/106/21 5/33/21
f 31/59/24 30/143/24 16/48/24
f 7/7/23 32/144/23 31/61/23
f 29/63/22 32/145/22 7/64/22
f 19/19/25 34/108/25 33/65/25
f 35/66/24 34/125/24 19/49/24
f 36/67/26 35/146/26 22/68/26
f 8/36/22 33/113/22 36/69/22
f 38/71/26 37/147/26 14/45/26
f 39/73/23 38/102/23 23/74/23
f 40/75/25 39/148/25 21/76/25
f 37/77/21 40/126/21 18/78/21
f 42/79/26 41/124/26 1/29/26
f 43/81/24 42/149/24 15/43/24
f 44/83/25 43/150/25 17/84/25
f 1/1/22 41/121/22 44/85/22
f 46/87/21 45/117/21 2/25/21
f 47/89/25 46/151/25 6/32/25
f 48/91/23 47/152/23 9/35/23
f 45/93/26 48/153/26 11/94/26
f 40/75/14 37/147/14 42/95/14
f 25/56/12 37/147/12 38/97/12
f 36/67/13 27/55/13 28/99/13
f 34/101/9 35/66/9 38/102/9
f 40/75/10 30/143/10 31/104/10
f 43/96/16 44/83/16 29/106/16
f 34/108/11 31/61/11 32/109/11
f 29/63/18 46/151/18 47/111/18
f 33/113/17 47/152/17 48/114/17
f 27/116/19 48/91/19 45/117/19
f 44/119/20 41/121/20 45/117/20
f 41/121/15 42/149/15 25/122/15
