# This file uses centimeters as units for non-parametric coordinates.

v -3.735924 -2.326152 -2.547346
v -3.477686 -2.011231 -2.491801
v -3.493996 -2.810757 -0.924569
v -3.235758 -2.495837 -0.869024
v -3.096111 -2.808571 -2.786794
v -2.837873 -2.493651 -2.731249
v -2.854183 -3.293176 -1.164017
v -2.595945 -2.978256 -1.108472
v 2.858355 -3.301241 -1.173211
v 2.634313 -2.972503 -1.069852
v 3.004556 -2.700111 -2.768218
v 2.780514 -2.371373 -2.664858
v 3.555861 -2.894210 -0.955874
v 3.331819 -2.565472 -0.852514
v 3.702062 -2.293080 -2.550880
v 3.478020 -1.964342 -2.447521
v -1.000000 -1.157300 5.931987
v -1.000000 0.834106 6.117193
v -1.000000 -1.115782 5.485576
v -1.000000 0.875624 5.670782
v 1.000000 -1.157300 5.931987
v 1.000000 0.834107 6.117193
v 1.000000 -1.115782 5.485576
v 1.000000 0.875624 5.670782
v -1.000000 -1.255031 6.982837
v -1.000000 0.736374 7.168042
v -1.000000 -1.213514 6.536426
v -1.000000 0.777892 6.721631
v 1.000000 -1.255031 6.982837
v 1.000000 0.736375 7.168043
v 1.000000 -1.213514 6.536426
v 1.000000 0.777892 6.721631
vt 0.000000 0.000000
vt 1.000000 0.000000
vt 1.000000 1.000000
vt 0.000000 0.000000
vt 1.000000 0.000000
vt 0.000000 0.000000
vt 1.000000 0.000000
vt 1.000000 1.000000
vt 0.000000 0.000000
vt 1.000000 0.000000
vt 1.000000 1.000000
vt 0.000000 0.000000
vt 1.000000 0.000000
vt 1.000000 1.000000
vt 0.000000 0.000000
vt 1.000000 0.000000
vt 1.000000 1.000000
vt 0.000000 0.000000
vt 1.000000 0.000000
vt 1.000000 1.000000
vt 0.000000 0.000000
vt 1.000000 0.000000
vt 1.000000 1.000000
vt 0.000000 0.000000
vt 1.000000 0.000000
vt 1.000000 1.000000
vt 0.000000 0.000000
vt 1.000000 0.000000
vt 1.000000 1.000000
vt 0.000000 0.000000
vt 1.000000 0.000000
vt 1.000000 1.000000
vt 0.000000 0.000000
vt 1.000000 0.000000
vt 1.000000 1.000000
vt 0.000000 0.000000
vt 1.000000 0.000000
vt 1.000000 1.000000
vt 0.000000 0.000000
vt 1.000000 0.000000
vt 1.000000 1.000000
vt 0.000000 0.000000
vt 1.000000 0.000000
vt 1.000000 1.000000
vt 0.000000 0.000000
vt 1.000000 0.000000
vt 1.000000 1.000000
vt 0.000000 0.000000
vt 1.000000 0.000000
vt 1.000000 1.000000
vt 0.000000 0.000000
vt 1.000000 0.000000
vt 1.000000 1.000000
vt 0.000000 0.000000
vt 1.000000 0.000000
vt 1.000000 1.000000
vt 0.000000 0.000000
vt 1.000000 0.000000
vt 1.000000 1.000000
vt 0.000000 0.000000
vt 1.000000 0.000000
vt 1.000000 1.000000
vt 0.000000 0.000000
vt 1.000000 0.000000
vt 1.000000 1.000000
vt 0.000000 0.000000
vt 1.000000 0.000000
vt 1.000000 1.000000
vt 0.000000 0.000000
vt 1.000000 0.000000
vt 1.000000 1.000000
vt 0.000000 0.000000
vt 1.000000 0.000000
vt 0.000000 0.000000
vt 1.000000 0.000000
vt 0.000000 0.000000
vt 1.000000 0.000000
vt 1.000000 1.000000
vt 0.000000 0.000000
vt 1.000000 0.000000
vt 1.000000 1.000000
vt 0.000000 0.000000
vt 1.000000 0.000000
vt 1.000000 1.000000
vt 1.000000 0.000000
vt 1.000000 1.000000
vt 0.000000 0.000000
vt 1.000000 0.000000
vt 1.000000 1.000000
vt 0.000000 0.000000
vt 1.000000 0.000000
vt 1.000000 1.000000
vt 0.000000 0.000000
vt 1.000000 0.000000
vt 1.000000 1.000000
vt 0.000000 0.000000
vt 1.000000 0.000000
vt 1.000000 1.000000
vt 0.000000 0.000000
vt 1.000000 0.000000
vt 1.000000 1.000000
vt 0.000000 0.000000
vt 1.000000 0.000000
vt 1.000000 1.000000
vt 0.000000 0.000000
vt 1.000000 0.000000
vt 1.000000 1.000000
vt 0.000000 0.000000
vt 1.000000 0.000000
vt 1.000000 1.000000
vt 0.000000 0.000000
vt 1.000000 0.000000
vt 1.000000 1.000000
vt 0.000000 0.000000
vt 1.000000 0.000000
vt 1.000000 1.000000
vt 0.000000 0.000000
vt 1.000000 0.000000
vt 1.000000 1.000000
vt 0.000000 0.000000
vt 1.000000 0.000000
vt 1.000000 1.000000
vt 0.000000 0.000000
vt 1.000000 0.000000
vt 1.000000 1.000000
vt 0.000000 0.000000
vt 1.000000 0.000000
vt 1.000000 1.000000
vt 0.000000 0.000000
vt 1.000000 0.000000
vt 1.000000 1.000000
vt 0.000000 0.000000
vt 1.000000 0.000000
vt 1.000000 1.000000
vt 0.000000 0.000000
vt 1.000000 0.000000
vt 1.000000 1.000000
vt 0.000000 0.000000
vt 1.000000 0.000000
vt 1.000000 1.000000
vn -0.765036 0.576840 0.286314
vn -0.765036 0.576840 0.286314
vn -0.765036 0.576840 0.286314
vn 0.141414 -0.283265 0.948558
vn 0.141414 -0.283265 0.948558
vn 0.141414 -0.283265 0.948558
vn 0.765036 -0.576840 -0.286313
vn 0.765036 -0.576840 -0.286313
vn 0.765036 -0.576840 -0.286314
vn -0.141412 0.283265 -0.948559
vn -0.141412 0.283265 -0.948559
vn -0.141412 0.283265 -0.948559
vn -0.628267 -0.766172 -0.135135
vn -0.628267 -0.766171 -0.135135
vn -0.628267 -0.766171 -0.135135
vn 0.628267 0.766171 0.135136
vn 0.628267 0.766172 0.135136
vn 0.628267 0.766172 0.135136
vn -0.834022 -0.486696 -0.259875
vn -0.834022 -0.486696 -0.259875
vn -0.834022 -0.486696 -0.259875
vn 0.085460 0.351377 -0.932326
vn 0.085460 0.351377 -0.932326
vn 0.085460 0.351377 -0.932326
vn 0.834022 0.486696 0.259875
vn 0.834022 0.486696 0.259875
vn 0.834022 0.486696 0.259875
vn -0.085459 -0.351376 0.932326
vn -0.085459 -0.351376 0.932326
vn -0.085459 -0.351376 0.932326
vn 0.545072 -0.799789 -0.251464
vn 0.545072 -0.799789 -0.251464
vn 0.545072 -0.799789 -0.251464
vn -0.545072 0.799789 0.251464
vn -0.545072 0.799789 0.251464
vn -0.545072 0.799789 0.251464
vn -1.000000 0.000000 0.000000
vn -1.000000 0.000000 0.000000
vn -1.000000 0.000000 0.000000
vn 0.000000 0.092603 -0.995703
vn 0.000000 0.092603 -0.995703
vn 0.000000 0.092603 -0.995703
vn 1.000000 0.000000 0.000000
vn 1.000000 0.000000 0.000000
vn 1.000000 0.000000 0.000000
vn 0.000000 -0.092603 0.995703
vn 0.000000 -0.092603 0.995703
vn 0.000000 -0.092603 0.995703
vn 0.000000 -0.995703 -0.092604
vn 0.000000 -0.995703 -0.092604
vn 0.000000 -0.995703 -0.092604
vn 0.000000 0.995703 0.092602
vn 0.000000 0.995703 0.092602
vn 0.000000 0.995703 0.092602
vn -1.000000 0.000000 0.000000
vn -1.000000 0.000000 0.000000
vn -1.000000 0.000000 0.000000
vn 0.000000 0.092603 -0.995703
vn 0.000000 0.092603 -0.995703
vn 0.000000 0.092603 -0.995703
vn 1.000000 0.000000 0.000000
vn 1.000000 0.000000 0.000000
vn 1.000000 0.000000 0.000000
vn -0.000001 -0.092603 0.995703
vn -0.000001 -0.092603 0.995703
vn -0.000001 -0.092603 0.995703
vn 0.000000 -0.995703 -0.092602
vn 0.000000 -0.995703 -0.092602
vn 0.000000 -0.995703 -0.092602
vn 0.000000 0.995703 0.092602
vn 0.000000 0.995703 0.092602
vn 0.000000 0.995703 0.092602
vn -0.765037 0.576838 0.286313
vn -0.765037 0.576838 0.286313
vn -0.765037 0.576838 0.286313
vn 0.141413 -0.283265 0.948559
vn 0.141413 -0.283265 0.948559
vn 0.141413 -0.283265 0.948559
vn 0.765037 -0.576839 -0.286314
vn 0.765037 -0.576839 -0.286314
vn 0.765037 -0.576839 -0.286314
vn -0.141413 0.283265 -0.948559
vn -0.141413 0.283265 -0.948559
vn -0.141413 0.283265 -0.948559
vn -0.628267 -0.766171 -0.135136
vn -0.628267 -0.766171 -0.135136
vn -0.628267 -0.766171 -0.135136
vn 0.628269 0.766170 0.135136
vn 0.628269 0.766170 0.135136
vn 0.628269 0.766170 0.135136
vn -0.834021 -0.486696 -0.259875
vn -0.834021 -0.486696 -0.259875
vn -0.834021 -0.486696 -0.259875
vn 0.085457 0.351377 -0.932326
vn 0.085457 0.351377 -0.932326
vn 0.085457 0.351377 -0.932326
vn 0.834022 0.486696 0.259875
vn 0.834022 0.486696 0.259875
vn 0.834022 0.486696 0.259875
vn -0.085459 -0.351378 0.932325
vn -0.085459 -0.351378 0.932325
vn -0.085459 -0.351378 0.932325
vn 0.545072 -0.799789 -0.251464
vn 0.545072 -0.799789 -0.251464
vn 0.545072 -0.799789 -0.251464
vn -0.545073 0.799789 0.251464
vn -0.545073 0.799789 0.251464
vn -0.545073 0.799789 0.251464
vn -1.000000 0.000000 0.000000
vn -1.000000 0.000000 0.000000
vn -1.000000 0.000000 0.000000
vn 0.000000 0.092603 -0.995703
vn 0.000000 0.092603 -0.995703
vn 0.000000 0.092603 -0.995703
vn 1.000000 0.000000 0.000000
vn 1.000000 0.000000 0.000000
vn 1.000000 0.000000 0.000000
vn 0.000000 -0.092603 0.995703
vn 0.000000 -0.092603 0.995703
vn 0.000000 -0.092603 0.995703
vn 0.000000 -0.995703 -0.092604
vn 0.000000 -0.995703 -0.092604
vn 0.000000 -0.995703 -0.092604
vn -0.000000 0.995703 0.092604
vn -0.000000 0.995703 0.092604
vn -0.000000 0.995703 0.092604
vn -1.000000 0.000000 0.000000
vn -1.000000 0.000000 0.000000
vn -1.000000 0.000000 0.000000
vn 0.000000 0.092603 -0.995703
vn 0.000000 0.092603 -0.995703
vn 0.000000 0.092603 -0.995703
vn 1.000000 0.000000 0.000000
vn 1.000000 0.000000 0.000000
vn 1.000000 0.000000 0.000000
vn 0.000000 -0.092603 0.995703
vn 0.000000 -0.092603 0.995703
vn 0.000000 -0.092603 0.995703
vn 0.000000 -0.995703 -0.092602
vn 0.000000 -0.995703 -0.092602
vn 0.000000 -0.995703 -0.092602
vn -0.000001 0.995703 0.092604
vn -0.000001 0.995703 0.092604
vn -0.000001 0.995703 0.092604
g BlasterPlayerMarkings:Mesh
f 2/1/1 3/3/2 4/2/3
f 8/4/4 3/3/5 7/5/6
f 6/6/7 7/8/8 5/7/9
f 6/9/10 1/11/11 2/10/12
f 3/12/13 5/14/14 7/13/15
f 6/15/16 4/17/17 8/16/18
f 12/18/19 11/19/20 9/20/21
f 16/21/22 15/22/23 11/23/24
f 14/24/25 13/25/26 15/26/27
f 10/27/28 9/28/29 13/29/30
f 11/30/31 15/31/32 13/32/33
f 16/33/34 12/34/35 10/35/36
f 20/36/37 19/37/38 17/38/39
f 24/39/40 23/40/41 19/41/42
f 24/42/43 22/43/44 21/44/45
f 22/45/46 18/46/47 17/47/48
f 19/48/49 23/49/50 21/50/51
f 22/51/52 24/52/53 20/53/54
f 28/54/55 27/55/56 25/56/57
f 32/57/58 31/58/59 27/59/60
f 32/60/61 30/61/62 29/62/63
f 30/63/64 26/64/65 25/65/66
f 27/66/67 31/67/68 29/68/69
f 30/69/70 32/70/71 28/71/72
f 1/72/73 3/3/74 2/73/75
f 4/74/76 3/3/77 8/75/78
f 8/76/79 7/78/80 6/77/81
f 5/79/82 1/81/83 6/80/84
f 1/82/85 5/84/86 3/83/87
f 2/1/88 4/86/89 6/85/90
f 10/87/91 12/88/92 9/89/93
f 12/90/94 16/91/95 11/92/96
f 16/93/97 14/94/98 15/95/99
f 14/96/100 10/97/101 13/98/102
f 9/99/103 11/100/104 13/101/105
f 14/102/106 16/103/107 10/104/108
f 18/105/109 20/106/110 17/107/111
f 20/108/112 24/109/113 19/110/114
f 23/111/115 24/112/116 21/113/117
f 21/114/118 22/115/119 17/116/120
f 17/117/121 19/118/122 21/119/123
f 18/120/124 22/121/125 20/122/126
f 26/123/127 28/124/128 25/125/129
f 28/126/130 32/127/131 27/128/132
f 31/129/133 32/130/134 29/131/135
f 29/132/136 30/133/137 25/134/138
f 25/135/139 27/136/140 29/137/141
f 26/138/142 30/139/143 28/140/144
