# Blender v2.76 (sub 0) OBJ File: ''
# www.blender.org
o GD_mesh.013
v 0.010750 1.087549 0.013486
v 0.010750 1.030358 0.346819
v 0.010750 0.664899 0.829983
v 0.010750 0.087549 1.013486
v 0.010750 -0.245785 0.956295
v 0.299425 1.030358 -0.153181
v 0.717856 0.664899 -0.394762
v 0.876775 0.087549 -0.486514
v 0.827246 -0.245785 -0.457918
v -0.277925 1.030358 -0.153181
v -0.696357 0.664899 -0.394762
v -0.855276 0.087549 -0.486514
v -0.805747 -0.245785 -0.457918
v 0.299425 -0.383856 0.846820
v 0.717856 -0.489802 0.421734
v 0.876775 -0.383856 -0.153181
v 0.588100 -0.383856 -0.653181
v 0.010750 -0.489802 -0.803010
v -0.566601 -0.383856 -0.653181
v -0.277925 -0.383856 0.846820
v -0.696357 -0.489802 0.421734
v -0.855276 -0.383856 -0.153181
v 0.510750 0.904045 0.302161
v 0.510750 0.087549 0.879512
v 1.010750 0.087549 0.013486
v 0.010750 0.904045 -0.563864
v 0.510750 0.087549 -0.852539
v -0.489250 0.087549 -0.852539
v -0.489250 0.904045 0.302161
v -0.489250 0.087549 0.879512
v -0.989250 0.087549 0.013486
v 0.010750 -0.728948 0.590836
v 0.510750 -0.728948 -0.275189
v -0.489250 -0.728948 -0.275189
vt 0.000000 0.000000
vt 1.000000 1.000000
vt 1.000000 0.000000
vn 0.281100 0.945900 0.162300
vn 0.247400 0.772800 0.584500
vn 0.254600 0.955800 0.147000
vn 0.629900 0.772800 -0.078000
vn 0.247400 0.293500 0.923400
vn 0.505400 0.498200 0.704500
vn 0.816500 0.333300 0.471400
vn 0.862900 0.498200 0.085500
vn 0.923400 0.293500 -0.247400
vn 0.281100 -0.162300 0.945900
vn 0.254600 -0.180000 0.950100
vn 0.629900 -0.331100 0.702600
vn 0.862900 -0.085500 0.498200
vn 0.923400 -0.331100 0.194200
vn 0.950100 -0.180000 -0.254600
vn 0.959700 -0.162300 -0.229500
vn 0.000000 0.945900 -0.324600
vn 0.382500 0.772800 -0.506500
vn 0.000000 0.955800 -0.294000
vn -0.382500 0.772800 -0.506500
vn 0.676000 0.293500 -0.676000
vn 0.357400 0.498200 -0.790000
vn -0.000000 0.333300 -0.942800
vn -0.357400 0.498200 -0.790000
vn -0.676000 0.293500 -0.676000
vn 0.678600 -0.162300 -0.716400
vn 0.695600 -0.180000 -0.695600
vn 0.293500 -0.331100 -0.896800
vn 0.000000 -0.085500 -0.996300
vn -0.293500 -0.331100 -0.896800
vn -0.695600 -0.180000 -0.695600
vn -0.678600 -0.162300 -0.716400
vn -0.281100 0.945900 0.162300
vn -0.247400 0.772800 0.584500
vn -0.254600 0.955800 0.147000
vn -0.629900 0.772800 -0.078000
vn -0.247400 0.293500 0.923400
vn -0.505400 0.498200 0.704500
vn -0.816500 0.333300 0.471400
vn -0.862900 0.498200 0.085500
vn -0.923400 0.293500 -0.247400
vn -0.281100 -0.162300 0.945900
vn -0.254600 -0.180000 0.950100
vn -0.629900 -0.331100 0.702600
vn -0.862900 -0.085500 0.498200
vn -0.923400 -0.331100 0.194200
vn -0.950100 -0.180000 -0.254600
vn -0.959700 -0.162300 -0.229500
vn 0.000000 -0.621300 0.783600
vn 0.382500 -0.735100 0.559700
vn 0.000000 -0.595800 0.803200
vn -0.382500 -0.735100 0.559700
vn 0.676000 -0.735100 0.051400
vn 0.357400 -0.910900 0.206300
vn 0.000000 -1.000000 0.000000
vn -0.357400 -0.910900 0.206300
vn -0.676000 -0.735100 0.051400
vn 0.678600 -0.621300 -0.391800
vn 0.695600 -0.595800 -0.401600
vn 0.293500 -0.735100 -0.611100
vn 0.000000 -0.910900 -0.412700
vn -0.293500 -0.735100 -0.611100
vn -0.695600 -0.595800 -0.401600
vn -0.678600 -0.621300 -0.391800
s off
f 1/1/1 2/2/1 6/3/1
f 2/1/2 3/2/2 23/3/2
f 23/1/3 6/2/3 2/3/3
f 6/1/4 23/2/4 7/3/4
f 3/1/5 4/2/5 24/3/5
f 24/1/6 23/2/6 3/3/6
f 23/1/7 24/2/7 25/3/7
f 25/1/8 7/2/8 23/3/8
f 7/1/9 25/2/9 8/3/9
f 4/1/10 5/2/10 14/3/10
f 14/1/11 24/2/11 4/3/11
f 24/1/12 14/2/12 15/3/12
f 15/1/13 25/2/13 24/3/13
f 25/1/14 15/2/14 16/3/14
f 16/1/15 8/2/15 25/3/15
f 8/1/16 16/2/16 9/3/16
f 1/1/17 6/2/17 10/3/17
f 6/1/18 7/2/18 26/3/18
f 26/1/19 10/2/19 6/3/19
f 10/1/20 26/2/20 11/3/20
f 7/1/21 8/2/21 27/3/21
f 27/1/22 26/2/22 7/3/22
f 26/1/23 27/2/23 28/3/23
f 28/1/24 11/2/24 26/3/24
f 11/1/25 28/2/25 12/3/25
f 8/1/26 9/2/26 17/3/26
f 17/1/27 27/2/27 8/3/27
f 27/1/28 17/2/28 18/3/28
f 18/1/29 28/2/29 27/3/29
f 28/1/30 18/2/30 19/3/30
f 19/1/31 12/2/31 28/3/31
f 12/1/32 19/2/32 13/3/32
f 1/1/33 10/2/33 2/3/33
f 2/1/34 29/2/34 3/3/34
f 29/1/35 2/2/35 10/3/35
f 10/1/36 11/2/36 29/3/36
f 3/1/37 30/2/37 4/3/37
f 30/1/38 3/2/38 29/3/38
f 29/1/39 31/2/39 30/3/39
f 31/1/40 29/2/40 11/3/40
f 11/1/41 12/2/41 31/3/41
f 4/1/42 20/2/42 5/3/42
f 20/1/43 4/2/43 30/3/43
f 30/1/44 21/2/44 20/3/44
f 21/1/45 30/2/45 31/3/45
f 31/1/46 22/2/46 21/3/46
f 22/1/47 31/2/47 12/3/47
f 12/1/48 13/2/48 22/3/48
f 5/1/49 20/2/49 14/3/49
f 14/1/50 32/2/50 15/3/50
f 32/1/51 14/2/51 20/3/51
f 20/1/52 21/2/52 32/3/52
f 15/1/53 33/2/53 16/3/53
f 33/1/54 15/2/54 32/3/54
f 32/1/55 34/2/55 33/3/55
f 34/1/56 32/2/56 21/3/56
f 21/1/57 22/2/57 34/3/57
f 16/1/58 17/2/58 9/3/58
f 17/1/59 16/2/59 33/3/59
f 33/1/60 18/2/60 17/3/60
f 18/1/61 33/2/61 34/3/61
f 34/1/62 19/2/62 18/3/62
f 19/1/63 34/2/63 22/3/63
f 22/1/64 13/2/64 19/3/64
