# Blender v2.76 (sub 0) OBJ File: ''
# www.blender.org
o GD_mesh.015
v 0.000000 1.000000 0.000000
v 0.850651 0.447214 0.276393
v 0.000000 0.447214 0.894427
v 0.525731 0.447214 -0.723607
v -0.525731 0.447214 -0.723607
v -0.850651 0.447214 0.276393
v 0.525731 -0.447214 0.723607
v 0.850651 -0.447214 -0.276393
v 0.000000 -0.447214 -0.894427
v -0.850651 -0.447214 -0.276393
v -0.525731 -0.447214 0.723607
v 0.000000 -1.000000 -0.000000
vt 0.000000 0.000000
vt 1.000000 1.000000
vt 1.000000 0.000000
vn 0.356800 0.794700 0.491100
vn 0.577300 0.794700 -0.187600
vn 0.000000 0.794700 -0.607100
vn -0.577300 0.794700 -0.187600
vn -0.356800 0.794700 0.491100
vn 0.577400 0.187600 0.794700
vn 0.934200 -0.187600 0.303500
vn 0.934200 0.187600 -0.303500
vn 0.577400 -0.187600 -0.794700
vn 0.000000 0.187600 -0.982200
vn -0.577400 -0.187600 -0.794700
vn -0.934200 0.187600 -0.303500
vn -0.934200 -0.187600 0.303500
vn -0.577400 0.187600 0.794700
vn 0.000000 -0.187600 0.982200
vn 0.577300 -0.794700 0.187600
vn 0.356800 -0.794700 -0.491100
vn -0.356800 -0.794700 -0.491100
vn -0.577300 -0.794700 0.187600
vn 0.000000 -0.794700 0.607100
s 1
f 1/1/1 3/2/1 2/3/1
f 1/1/2 2/2/2 4/3/2
f 1/1/3 4/2/3 5/3/3
f 1/1/4 5/2/4 6/3/4
f 1/1/5 6/2/5 3/3/5
f 3/1/6 7/2/6 2/3/6
f 2/1/7 7/2/7 8/3/7
f 2/1/8 8/2/8 4/3/8
f 4/1/9 8/2/9 9/3/9
f 4/1/10 9/2/10 5/3/10
f 5/1/11 9/2/11 10/3/11
f 5/1/12 10/2/12 6/3/12
f 6/1/13 10/2/13 11/3/13
f 6/1/14 11/2/14 3/3/14
f 3/1/15 11/2/15 7/3/15
f 7/1/16 12/2/16 8/3/16
f 8/1/17 12/2/17 9/3/17
f 9/1/18 12/2/18 10/3/18
f 10/1/19 12/2/19 11/3/19
f 11/1/20 12/2/20 7/3/20
