# Blender v2.76 (sub 0) OBJ File: ''
# www.blender.org
o GD_mesh.014
v 0.000000 1.000000 0.000000
v 0.000000 0.707107 -0.707107
v 0.000000 0.000000 -1.000000
v -0.707107 0.707107 -0.000000
v -1.000000 0.000000 -0.000000
v -0.000000 0.707107 0.707107
v -0.000000 0.000000 1.000000
v 0.707107 0.707107 0.000000
v 1.000000 0.000000 0.000000
v -0.707107 0.000000 -0.707107
v -0.707107 0.000000 0.707107
v 0.707107 0.000000 0.707107
v 0.707107 0.000000 -0.707107
v 0.000000 -0.707107 -0.707107
v -0.000000 -1.000000 -0.000000
v -0.707107 -0.707107 -0.000000
v -0.000000 -0.707107 0.707107
v 0.707107 -0.707107 0.000000
vt 0.000000 0.000000
vt 1.000000 0.000000
vt 1.000000 1.000000
vn -0.357400 0.862900 -0.357400
vn -0.357400 0.357400 -0.862900
vn -0.577400 0.577400 -0.577400
vn -0.862900 0.357400 -0.357400
vn -0.357400 0.862900 0.357400
vn -0.862900 0.357400 0.357400
vn -0.577400 0.577400 0.577400
vn -0.357400 0.357400 0.862900
vn 0.357400 0.862900 0.357400
vn 0.357400 0.357400 0.862900
vn 0.577400 0.577400 0.577400
vn 0.862900 0.357400 0.357400
vn 0.357400 0.862900 -0.357400
vn 0.862900 0.357400 -0.357400
vn 0.577400 0.577400 -0.577400
vn 0.357400 0.357400 -0.862900
vn -0.357400 -0.357400 -0.862900
vn -0.862900 -0.357400 -0.357400
vn -0.577400 -0.577400 -0.577400
vn -0.357400 -0.862900 -0.357400
vn -0.862900 -0.357400 0.357400
vn -0.357400 -0.357400 0.862900
vn -0.577400 -0.577400 0.577400
vn -0.357400 -0.862900 0.357400
vn 0.357400 -0.357400 0.862900
vn 0.862900 -0.357400 0.357400
vn 0.577400 -0.577400 0.577400
vn 0.357400 -0.862900 0.357400
vn 0.862900 -0.357400 -0.357400
vn 0.357400 -0.357400 -0.862900
vn 0.577400 -0.577400 -0.577400
vn 0.357400 -0.862900 -0.357400
s off
f 1/1/1 2/2/1 4/3/1
f 2/1/2 3/2/2 10/3/2
f 10/1/3 4/2/3 2/3/3
f 4/1/4 10/2/4 5/3/4
f 1/1/5 4/2/5 6/3/5
f 4/1/6 5/2/6 11/3/6
f 11/1/7 6/2/7 4/3/7
f 6/1/8 11/2/8 7/3/8
f 1/1/9 6/2/9 8/3/9
f 6/1/10 7/2/10 12/3/10
f 12/1/11 8/2/11 6/3/11
f 8/1/12 12/2/12 9/3/12
f 1/1/13 8/2/13 2/3/13
f 8/1/14 9/2/14 13/3/14
f 13/1/15 2/2/15 8/3/15
f 2/1/16 13/2/16 3/3/16
f 3/1/17 14/2/17 10/3/17
f 10/1/18 16/2/18 5/3/18
f 16/1/19 10/2/19 14/3/19
f 14/1/20 15/2/20 16/3/20
f 5/1/21 16/2/21 11/3/21
f 11/1/22 17/2/22 7/3/22
f 17/1/23 11/2/23 16/3/23
f 16/1/24 15/2/24 17/3/24
f 7/1/25 17/2/25 12/3/25
f 12/1/26 18/2/26 9/3/26
f 18/1/27 12/2/27 17/3/27
f 17/1/28 15/2/28 18/3/28
f 9/1/29 18/2/29 13/3/29
f 13/1/30 14/2/30 3/3/30
f 14/1/31 13/2/31 18/3/31
f 18/1/32 15/2/32 14/3/32
