# Blender v2.76 (sub 0) OBJ File: ''
# www.blender.org
o Cube.001
v 1.000000 -1.000000 -1.000000
v 0.144717 -0.144718 5.000000
v -0.144718 -0.144718 5.000000
v 1.000000 1.000000 -0.999998
v -1.000000 1.000000 -1.000000
v -0.144718 0.144717 5.000000
v 0.144717 0.144717 5.000000
v -1.000000 -1.000000 -1.000001
vt 0.000000 0.000000
vt 1.000000 0.000000
vt 1.000000 1.000000
vt 0.000000 1.000000
vn 0.000000 -0.990000 0.141100
vn -0.000000 0.990000 0.141100
vn 0.990000 0.000000 0.141100
vn 0.000000 0.000000 1.000000
vn -0.990000 0.000000 0.141100
vn 0.000000 0.000000 -1.000000
s off
f 1/1/1 2/2/1 3/3/1
f 4/1/2 5/2/2 6/3/2
f 4/2/3 7/3/3 2/4/3
f 7/2/4 6/3/4 3/4/4
f 3/1/5 6/2/5 5/3/5
f 1/2/6 8/3/6 5/4/6
f 8/4/1 1/1/1 3/3/1
f 7/4/2 4/1/2 6/3/2
f 1/1/3 4/2/3 2/4/3
f 2/1/4 7/2/4 3/4/4
f 8/4/5 3/1/5 5/3/5
f 4/1/6 1/2/6 5/4/6
